<?xml version="1.0" standalone="no"?>
<!DOCTYPE svg PUBLIC "-//W3C//DTD SVG 20010904//EN"
 "http://www.w3.org/TR/2001/REC-SVG-20010904/DTD/svg10.dtd">
<svg version="1.0" xmlns="http://www.w3.org/2000/svg"
 width="223.000000pt" height="234.000000pt" viewBox="0 0 223.000000 234.000000"
 preserveAspectRatio="xMidYMid meet">

<g transform="translate(0.000000,234.000000) scale(0.100000,-0.100000)"
fill="#000000" stroke="none">
<path d="M300 1680 c0 -514 2 -571 16 -577 12 -4 98 76 310 288 l294 294 -2
280 -3 280 -307 3 -308 2 0 -570z"/>
<path d="M1320 1963 l0 -288 285 -285 c245 -245 287 -283 303 -274 16 10 17
49 17 570 l0 559 -302 3 -303 2 0 -287z"/>
<path d="M600 1220 c-300 -268 -505 -457 -505 -468 0 -15 13 -17 113 -20 l112
-3 0 -319 0 -320 300 0 300 0 0 320 0 320 185 0 185 0 0 -320 0 -320 300 0
300 0 0 320 0 319 122 3 c101 2 123 6 126 18 3 16 -995 912 -1021 917 -6 2
-239 -200 -517 -447z"/>
</g>
</svg>
